<svg width="400" height="216" viewBox="0 0 400 216" fill="none" xmlns="http://www.w3.org/2000/svg">
    <g clip-path="url(#clip0_3147_5281)">
        <rect width="400" height="216" fill="#211FA6" fill-opacity="0.05"/>
        <circle cx="199.497" cy="108" r="119.835" fill="#211FA6" fill-opacity="0.02"/>
        <circle cx="199.5" cy="108" r="87.1349" fill="#211FA6" fill-opacity="0.04"/>
        <circle cx="199.498" cy="108" r="61.9242" fill="#211FA6" fill-opacity="0.1"/>
        <g filter="url(#filter0_d_3147_5281)">
            <circle cx="87.6565" cy="107.383" r="27.2874" fill="white"/>
        </g>
        <path d="M92.7195 107.016C92.7195 108.071 92.6277 109.034 92.536 109.952H84.0511C83.9594 109.034 83.8677 108.071 83.8677 107.016C83.8677 106.007 83.9594 105.044 84.0511 104.081H92.536C92.6277 105.044 92.7195 106.007 92.7195 107.016ZM99.645 104.081C99.9202 105.044 100.058 106.007 100.058 107.016C100.058 108.071 99.9202 109.034 99.645 109.952H94.0037C94.0954 109.034 94.1871 108.025 94.1871 107.016C94.1871 106.007 94.0954 105.044 94.0037 104.081H99.645ZM99.1863 102.613H93.8202C93.3616 99.7239 92.4443 97.2473 91.2977 95.6879C94.8751 96.651 97.8104 99.2194 99.1863 102.613ZM92.3526 102.613H84.2346C84.5098 100.962 84.9684 99.4946 85.4729 98.3021C85.9774 97.2014 86.4819 96.4217 87.0323 95.9172C87.5368 95.4586 87.9496 95.2751 88.3165 95.2751C88.6376 95.2751 89.0503 95.4586 89.5548 95.9172C90.1052 96.4217 90.6097 97.2014 91.1142 98.3021C91.6187 99.4946 92.0774 100.962 92.3526 102.613ZM77.4008 102.613C78.7767 99.2194 81.7121 96.651 85.2895 95.6879C84.1429 97.2473 83.2256 99.7239 82.7669 102.613H77.4008ZM82.5835 104.081C82.4918 105.044 82.4 106.007 82.4 107.016C82.4 108.025 82.4918 109.034 82.5835 109.952H76.9422C76.667 109.034 76.5753 108.071 76.5753 107.016C76.5753 106.007 76.667 105.044 76.9422 104.081H82.5835ZM85.4729 115.776C84.9684 114.584 84.5098 113.116 84.2346 111.419H92.3526C92.0774 113.116 91.6187 114.584 91.1142 115.776C90.6097 116.877 90.1052 117.657 89.5548 118.161C89.0503 118.62 88.6376 118.758 88.2706 118.758C87.9496 118.758 87.5368 118.62 87.0323 118.161C86.4819 117.657 85.9774 116.877 85.4729 115.776ZM85.2895 118.391C81.7121 117.428 78.7767 114.859 77.4008 111.419H82.7669C83.2256 114.355 84.1429 116.831 85.2895 118.391ZM91.2977 118.391C92.4443 116.831 93.3616 114.355 93.8202 111.419H99.1863C97.8104 114.859 94.8751 117.428 91.2977 118.391Z" fill="#211FA6"/>
        <g filter="url(#filter1_d_3147_5281)">
            <circle cx="199.498" cy="107.382" r="30.9064" fill="#211FA6"/>
        </g>
        <path d="M207.22 97.6962C208.034 98.1508 208.539 99.0162 208.539 99.9558L208.539 117.869C208.539 118.808 208.034 119.674 207.22 120.128L203.089 122.437C201.386 123.388 199.299 122.144 199.299 120.178L199.299 97.6468C199.299 95.6806 201.386 94.4359 203.089 95.3873L207.22 97.6962Z" fill="#F8F8FC"/>
        <path d="M197.171 99.8045C197.269 99.9871 197.32 100.191 197.32 100.399V117.41C197.32 117.617 197.269 117.821 197.171 118.004C196.561 119.149 194.842 118.711 194.842 117.41L194.842 100.399C194.842 99.0978 196.561 98.6594 197.171 99.8045Z" fill="#F8F8FC"/>
        <path d="M192.787 103.191C192.884 103.373 192.935 103.577 192.935 103.785L192.935 114.052C192.935 114.26 192.884 114.464 192.787 114.646C192.176 115.792 190.457 115.353 190.457 114.052L190.457 103.785C190.457 102.484 192.176 102.046 192.787 103.191Z" fill="#F8F8FC"/>
        <g filter="url(#filter2_d_3147_5281)">
            <circle cx="311.343" cy="107.383" r="27.288" fill="white"/>
        </g>
        <path d="M296.043 103.208C296.043 101.907 296.759 100.712 297.906 100.099L309.408 93.9434C310.448 93.3871 311.696 93.3871 312.736 93.9434L324.239 100.099C325.385 100.712 326.101 101.907 326.101 103.208V118.186C326.101 120.407 324.245 122.207 321.955 122.207H300.189C297.899 122.207 296.043 120.407 296.043 118.186V103.208Z" fill="#FAFAFA"/>
        <path d="M296.043 103.219C296.043 101.918 296.759 100.712 297.906 100.099L309.408 93.9434C310.448 93.3871 311.697 93.3871 312.736 93.9434L324.239 100.099C325.385 100.712 326.101 101.918 326.101 103.219C320.396 103.219 303.063 103.219 296.043 103.219Z" fill="#DADADF"/>
        <path d="M326.101 102.954L315.666 111.585C315.034 112.108 314.239 112.394 313.419 112.394H308.726C307.905 112.394 307.11 112.108 306.478 111.585L296.043 102.954V118.319C296.043 120.461 297.78 122.198 299.922 122.198H322.222C324.364 122.198 326.101 120.461 326.101 118.319V102.954Z" fill="#211FA6"/>
        <ellipse cx="297.9" cy="102.912" rx="6.81805" ry="6.81805" fill="#00B288"/>
        <path d="M300.431 100.482L296.726 104.187L295.374 102.82C295.303 102.764 295.191 102.764 295.134 102.82L294.726 103.229C294.67 103.285 294.67 103.398 294.726 103.468L296.613 105.342C296.684 105.412 296.782 105.412 296.853 105.342L301.078 101.116C301.135 101.06 301.135 100.947 301.078 100.876L300.67 100.482C300.614 100.412 300.501 100.412 300.431 100.482Z" fill="white"/>
        <g filter="url(#filter3_d_3147_5281)">
            <rect x="117.234" y="171.685" width="164.528" height="19.1949" rx="9.59746" fill="white" shape-rendering="crispEdges"/>
            <path d="M130.599 176.606C130.813 176.766 130.884 177.034 130.795 177.284L129.385 180.783H131.973C132.223 180.783 132.438 180.926 132.509 181.158C132.598 181.39 132.527 181.64 132.348 181.801L127.207 186.085C126.993 186.246 126.707 186.264 126.493 186.103C126.279 185.943 126.207 185.675 126.296 185.425L127.707 181.926H125.118C124.886 181.926 124.672 181.783 124.583 181.551C124.493 181.319 124.565 181.069 124.761 180.908L129.903 176.624C130.099 176.463 130.385 176.445 130.599 176.606Z" fill="#25B578"/>
            <path opacity="0.9" d="M143.417 180.243C143.358 179.68 143.154 179.274 142.803 179.026C142.459 178.77 142.016 178.642 141.475 178.642C141.256 178.642 141.04 178.664 140.828 178.708C140.616 178.751 140.426 178.825 140.258 178.927C140.097 179.029 139.965 179.168 139.863 179.344C139.768 179.512 139.72 179.724 139.72 179.98C139.72 180.221 139.79 180.419 139.929 180.572C140.075 180.718 140.265 180.839 140.499 180.934C140.74 181.029 141.011 181.11 141.311 181.175C141.611 181.234 141.914 181.3 142.221 181.373C142.536 181.446 142.843 181.534 143.143 181.636C143.442 181.731 143.709 181.863 143.943 182.031C144.185 182.199 144.375 182.411 144.514 182.667C144.66 182.923 144.733 183.245 144.733 183.632C144.733 184.049 144.638 184.408 144.448 184.707C144.265 185 144.027 185.241 143.735 185.431C143.442 185.614 143.113 185.746 142.748 185.826C142.389 185.914 142.031 185.958 141.673 185.958C141.234 185.958 140.817 185.903 140.422 185.793C140.035 185.684 139.691 185.519 139.391 185.3C139.099 185.073 138.865 184.788 138.689 184.444C138.521 184.093 138.437 183.68 138.437 183.205H139.424C139.424 183.534 139.486 183.819 139.611 184.06C139.742 184.294 139.911 184.488 140.115 184.641C140.327 184.795 140.572 184.908 140.85 184.982C141.128 185.055 141.413 185.091 141.706 185.091C141.94 185.091 142.174 185.069 142.408 185.025C142.649 184.982 142.865 184.908 143.055 184.806C143.245 184.696 143.399 184.55 143.516 184.367C143.633 184.184 143.691 183.95 143.691 183.665C143.691 183.395 143.618 183.175 143.472 183.007C143.333 182.839 143.143 182.704 142.901 182.601C142.667 182.492 142.4 182.404 142.101 182.338C141.801 182.272 141.494 182.206 141.179 182.141C140.872 182.068 140.569 181.987 140.269 181.899C139.969 181.804 139.698 181.684 139.457 181.537C139.223 181.384 139.033 181.19 138.887 180.956C138.748 180.715 138.678 180.415 138.678 180.057C138.678 179.662 138.759 179.322 138.92 179.037C139.081 178.744 139.293 178.506 139.556 178.324C139.826 178.134 140.13 177.995 140.466 177.907C140.81 177.812 141.161 177.764 141.519 177.764C141.921 177.764 142.294 177.812 142.638 177.907C142.982 178.002 143.282 178.152 143.537 178.357C143.801 178.561 144.005 178.821 144.152 179.135C144.305 179.442 144.389 179.812 144.404 180.243H143.417ZM149.783 182.404C149.769 182.185 149.718 181.976 149.63 181.779C149.549 181.581 149.436 181.413 149.29 181.274C149.151 181.128 148.983 181.015 148.785 180.934C148.595 180.846 148.383 180.803 148.149 180.803C147.908 180.803 147.688 180.846 147.491 180.934C147.301 181.015 147.136 181.128 146.997 181.274C146.858 181.42 146.749 181.592 146.668 181.79C146.588 181.98 146.54 182.185 146.526 182.404H149.783ZM150.683 183.983C150.558 184.62 150.284 185.099 149.86 185.42C149.436 185.742 148.902 185.903 148.259 185.903C147.805 185.903 147.41 185.83 147.074 185.684C146.745 185.537 146.467 185.333 146.241 185.069C146.014 184.806 145.842 184.492 145.725 184.126C145.615 183.76 145.553 183.362 145.539 182.93C145.539 182.499 145.604 182.104 145.736 181.746C145.868 181.388 146.05 181.077 146.284 180.813C146.526 180.55 146.807 180.345 147.129 180.199C147.458 180.053 147.816 179.98 148.204 179.98C148.708 179.98 149.125 180.086 149.454 180.298C149.791 180.503 150.058 180.766 150.255 181.088C150.46 181.409 150.599 181.76 150.672 182.141C150.752 182.521 150.785 182.883 150.771 183.227H146.526C146.518 183.475 146.548 183.713 146.613 183.94C146.679 184.159 146.785 184.356 146.932 184.532C147.078 184.7 147.264 184.835 147.491 184.938C147.718 185.04 147.985 185.091 148.292 185.091C148.686 185.091 149.008 185 149.257 184.817C149.513 184.634 149.681 184.356 149.761 183.983H150.683ZM153.031 180.111H154.161V180.934H153.031V184.455C153.031 184.565 153.039 184.652 153.053 184.718C153.075 184.784 153.112 184.835 153.163 184.872C153.214 184.908 153.284 184.934 153.371 184.949C153.466 184.956 153.587 184.96 153.733 184.96H154.161V185.782H153.448C153.207 185.782 152.998 185.768 152.823 185.738C152.655 185.702 152.516 185.64 152.406 185.552C152.304 185.464 152.227 185.34 152.176 185.179C152.124 185.018 152.099 184.806 152.099 184.543V180.934H151.134V180.111H152.099V178.411H153.031V180.111ZM159.891 185.782H159.014V184.883H158.992C158.794 185.234 158.542 185.493 158.235 185.662C157.928 185.822 157.566 185.903 157.149 185.903C156.776 185.903 156.465 185.855 156.217 185.76C155.968 185.658 155.767 185.515 155.614 185.333C155.46 185.15 155.35 184.934 155.284 184.685C155.226 184.429 155.197 184.148 155.197 183.841V180.111H156.129V183.95C156.129 184.301 156.231 184.579 156.436 184.784C156.641 184.989 156.922 185.091 157.281 185.091C157.566 185.091 157.811 185.047 158.016 184.96C158.228 184.872 158.403 184.748 158.542 184.587C158.681 184.426 158.783 184.239 158.849 184.027C158.922 183.808 158.959 183.57 158.959 183.314V180.111H159.891V185.782ZM161.324 180.111H162.257V180.879H162.279C162.432 180.565 162.674 180.338 163.003 180.199C163.332 180.053 163.694 179.98 164.089 179.98C164.527 179.98 164.908 180.06 165.229 180.221C165.558 180.382 165.829 180.601 166.041 180.879C166.26 181.15 166.425 181.464 166.535 181.823C166.644 182.181 166.699 182.561 166.699 182.963C166.699 183.365 166.644 183.746 166.535 184.104C166.432 184.462 166.271 184.777 166.052 185.047C165.84 185.311 165.569 185.519 165.24 185.673C164.918 185.826 164.542 185.903 164.11 185.903C163.972 185.903 163.814 185.888 163.639 185.859C163.471 185.83 163.302 185.782 163.134 185.716C162.966 185.651 162.805 185.563 162.652 185.453C162.505 185.336 162.381 185.194 162.279 185.025H162.257V187.943H161.324V180.111ZM165.712 182.898C165.712 182.634 165.675 182.378 165.602 182.13C165.536 181.874 165.43 181.647 165.284 181.45C165.145 181.252 164.962 181.095 164.736 180.978C164.516 180.861 164.257 180.803 163.957 180.803C163.642 180.803 163.376 180.865 163.156 180.989C162.937 181.113 162.758 181.278 162.619 181.483C162.48 181.68 162.377 181.907 162.312 182.163C162.253 182.419 162.224 182.678 162.224 182.941C162.224 183.219 162.257 183.49 162.323 183.753C162.388 184.009 162.491 184.236 162.63 184.433C162.776 184.631 162.962 184.791 163.189 184.916C163.416 185.033 163.69 185.091 164.012 185.091C164.333 185.091 164.6 185.029 164.812 184.905C165.032 184.78 165.207 184.616 165.339 184.411C165.471 184.206 165.566 183.972 165.624 183.709C165.683 183.446 165.712 183.175 165.712 182.898ZM174.784 182.404C174.769 182.185 174.718 181.976 174.63 181.779C174.55 181.581 174.437 181.413 174.29 181.274C174.151 181.128 173.983 181.015 173.786 180.934C173.596 180.846 173.384 180.803 173.15 180.803C172.908 180.803 172.689 180.846 172.491 180.934C172.301 181.015 172.137 181.128 171.998 181.274C171.859 181.42 171.749 181.592 171.669 181.79C171.588 181.98 171.541 182.185 171.526 182.404H174.784ZM175.683 183.983C175.559 184.62 175.285 185.099 174.861 185.42C174.437 185.742 173.903 185.903 173.259 185.903C172.806 185.903 172.411 185.83 172.075 185.684C171.746 185.537 171.468 185.333 171.241 185.069C171.014 184.806 170.843 184.492 170.726 184.126C170.616 183.76 170.554 183.362 170.539 182.93C170.539 182.499 170.605 182.104 170.736 181.746C170.868 181.388 171.051 181.077 171.285 180.813C171.526 180.55 171.808 180.345 172.129 180.199C172.459 180.053 172.817 179.98 173.204 179.98C173.709 179.98 174.126 180.086 174.455 180.298C174.791 180.503 175.058 180.766 175.256 181.088C175.46 181.409 175.599 181.76 175.672 182.141C175.753 182.521 175.786 182.883 175.771 183.227H171.526C171.519 183.475 171.548 183.713 171.614 183.94C171.68 184.159 171.786 184.356 171.932 184.532C172.078 184.7 172.265 184.835 172.491 184.938C172.718 185.04 172.985 185.091 173.292 185.091C173.687 185.091 174.009 185 174.257 184.817C174.513 184.634 174.682 184.356 174.762 183.983H175.683ZM176.737 180.111H177.615V180.945H177.637C178.061 180.302 178.672 179.98 179.469 179.98C179.82 179.98 180.138 180.053 180.423 180.199C180.708 180.345 180.909 180.594 181.026 180.945C181.216 180.638 181.465 180.4 181.772 180.232C182.086 180.064 182.43 179.98 182.803 179.98C183.088 179.98 183.344 180.013 183.571 180.079C183.805 180.137 184.002 180.232 184.163 180.364C184.331 180.495 184.459 180.667 184.547 180.879C184.642 181.084 184.69 181.333 184.69 181.625V185.782H183.757V182.064C183.757 181.888 183.743 181.724 183.713 181.57C183.684 181.417 183.629 181.285 183.549 181.175C183.468 181.058 183.355 180.967 183.209 180.901C183.07 180.835 182.887 180.803 182.66 180.803C182.2 180.803 181.838 180.934 181.575 181.197C181.311 181.461 181.18 181.812 181.18 182.25V185.782H180.247V182.064C180.247 181.881 180.229 181.713 180.193 181.559C180.163 181.406 180.108 181.274 180.028 181.164C179.948 181.047 179.838 180.96 179.699 180.901C179.567 180.835 179.396 180.803 179.183 180.803C178.913 180.803 178.679 180.857 178.481 180.967C178.291 181.077 178.134 181.208 178.01 181.362C177.893 181.515 177.805 181.676 177.747 181.845C177.695 182.005 177.67 182.141 177.67 182.25V185.782H176.737V180.111ZM191.112 185.76C190.951 185.855 190.728 185.903 190.443 185.903C190.202 185.903 190.008 185.837 189.862 185.705C189.723 185.567 189.653 185.343 189.653 185.036C189.397 185.343 189.098 185.567 188.754 185.705C188.418 185.837 188.052 185.903 187.657 185.903C187.401 185.903 187.156 185.874 186.922 185.815C186.695 185.757 186.498 185.665 186.33 185.541C186.162 185.417 186.026 185.256 185.924 185.058C185.829 184.854 185.781 184.609 185.781 184.323C185.781 184.002 185.836 183.738 185.946 183.534C186.056 183.329 186.198 183.164 186.374 183.04C186.557 182.908 186.761 182.81 186.988 182.744C187.222 182.678 187.46 182.623 187.701 182.579C187.957 182.528 188.198 182.492 188.425 182.47C188.659 182.44 188.864 182.404 189.039 182.36C189.215 182.309 189.354 182.239 189.456 182.152C189.558 182.057 189.609 181.921 189.609 181.746C189.609 181.541 189.569 181.377 189.489 181.252C189.416 181.128 189.317 181.033 189.193 180.967C189.076 180.901 188.94 180.857 188.787 180.835C188.641 180.813 188.494 180.803 188.348 180.803C187.953 180.803 187.624 180.879 187.361 181.033C187.098 181.179 186.955 181.461 186.933 181.877H186.001C186.015 181.526 186.089 181.23 186.22 180.989C186.352 180.748 186.527 180.554 186.747 180.408C186.966 180.254 187.215 180.144 187.493 180.079C187.778 180.013 188.081 179.98 188.403 179.98C188.659 179.98 188.911 179.998 189.16 180.035C189.416 180.071 189.646 180.148 189.851 180.265C190.056 180.375 190.22 180.532 190.344 180.737C190.469 180.941 190.531 181.208 190.531 181.537V184.455C190.531 184.674 190.542 184.835 190.564 184.938C190.593 185.04 190.681 185.091 190.827 185.091C190.907 185.091 191.002 185.073 191.112 185.036V185.76ZM189.598 182.854C189.482 182.941 189.328 183.007 189.138 183.051C188.948 183.088 188.747 183.121 188.535 183.15C188.33 183.172 188.121 183.201 187.909 183.238C187.697 183.267 187.507 183.318 187.339 183.391C187.171 183.464 187.032 183.57 186.922 183.709C186.82 183.841 186.769 184.024 186.769 184.258C186.769 184.411 186.798 184.543 186.856 184.652C186.922 184.755 187.003 184.839 187.098 184.905C187.2 184.971 187.317 185.018 187.449 185.047C187.58 185.077 187.719 185.091 187.865 185.091C188.173 185.091 188.436 185.051 188.655 184.971C188.875 184.883 189.054 184.777 189.193 184.652C189.332 184.521 189.434 184.382 189.5 184.236C189.566 184.082 189.598 183.94 189.598 183.808V182.854ZM192.967 179.091H192.035V177.951H192.967V179.091ZM192.035 180.111H192.967V185.782H192.035V180.111ZM194.466 177.951H195.399V185.782H194.466V177.951ZM197.413 183.994C197.421 184.199 197.468 184.375 197.556 184.521C197.644 184.66 197.757 184.773 197.896 184.861C198.042 184.941 198.203 185 198.378 185.036C198.561 185.073 198.748 185.091 198.938 185.091C199.084 185.091 199.238 185.08 199.399 185.058C199.559 185.036 199.706 184.996 199.837 184.938C199.976 184.879 200.09 184.795 200.177 184.685C200.265 184.568 200.309 184.422 200.309 184.247C200.309 184.005 200.218 183.823 200.035 183.698C199.852 183.574 199.622 183.475 199.344 183.402C199.073 183.322 198.777 183.252 198.455 183.194C198.133 183.128 197.834 183.04 197.556 182.93C197.285 182.813 197.059 182.653 196.876 182.448C196.693 182.243 196.602 181.958 196.602 181.592C196.602 181.307 196.664 181.062 196.788 180.857C196.92 180.653 197.084 180.488 197.282 180.364C197.486 180.232 197.713 180.137 197.962 180.079C198.218 180.013 198.47 179.98 198.718 179.98C199.04 179.98 199.336 180.009 199.607 180.068C199.877 180.119 200.115 180.214 200.32 180.353C200.532 180.484 200.7 180.667 200.824 180.901C200.949 181.128 201.022 181.413 201.044 181.757H200.111C200.097 181.574 200.049 181.424 199.969 181.307C199.888 181.183 199.786 181.084 199.662 181.011C199.537 180.938 199.399 180.887 199.245 180.857C199.099 180.821 198.949 180.803 198.795 180.803C198.656 180.803 198.514 180.813 198.367 180.835C198.229 180.857 198.101 180.898 197.984 180.956C197.867 181.007 197.772 181.08 197.698 181.175C197.625 181.263 197.589 181.38 197.589 181.526C197.589 181.687 197.644 181.823 197.753 181.932C197.87 182.035 198.016 182.122 198.192 182.196C198.367 182.261 198.565 182.32 198.784 182.371C199.004 182.415 199.223 182.462 199.442 182.514C199.676 182.565 199.903 182.627 200.122 182.7C200.349 182.773 200.547 182.872 200.715 182.996C200.89 183.113 201.029 183.263 201.132 183.446C201.241 183.629 201.296 183.855 201.296 184.126C201.296 184.47 201.223 184.755 201.077 184.982C200.938 185.208 200.751 185.391 200.517 185.53C200.291 185.669 200.031 185.764 199.739 185.815C199.453 185.874 199.168 185.903 198.883 185.903C198.569 185.903 198.269 185.87 197.984 185.804C197.698 185.738 197.446 185.632 197.227 185.486C197.007 185.333 196.832 185.135 196.7 184.894C196.569 184.645 196.496 184.345 196.481 183.994H197.413ZM206.367 179.091H205.435V177.951H206.367V179.091ZM205.435 180.111H206.367V185.782H205.435V180.111ZM207.811 180.111H208.689V181.011H208.711C209.098 180.324 209.713 179.98 210.554 179.98C210.926 179.98 211.237 180.031 211.486 180.133C211.734 180.236 211.936 180.378 212.089 180.561C212.243 180.744 212.349 180.963 212.407 181.219C212.473 181.468 212.506 181.746 212.506 182.053V185.782H211.574V181.943C211.574 181.592 211.471 181.314 211.266 181.11C211.062 180.905 210.78 180.803 210.422 180.803C210.137 180.803 209.888 180.846 209.676 180.934C209.471 181.022 209.299 181.146 209.161 181.307C209.022 181.468 208.916 181.658 208.842 181.877C208.777 182.089 208.744 182.323 208.744 182.579V185.782H207.811V180.111ZM221.983 185.76C221.822 185.855 221.599 185.903 221.313 185.903C221.072 185.903 220.878 185.837 220.732 185.705C220.593 185.567 220.524 185.343 220.524 185.036C220.268 185.343 219.968 185.567 219.624 185.705C219.288 185.837 218.922 185.903 218.527 185.903C218.272 185.903 218.027 185.874 217.793 185.815C217.566 185.757 217.368 185.665 217.2 185.541C217.032 185.417 216.897 185.256 216.794 185.058C216.699 184.854 216.652 184.609 216.652 184.323C216.652 184.002 216.707 183.738 216.816 183.534C216.926 183.329 217.069 183.164 217.244 183.04C217.427 182.908 217.632 182.81 217.858 182.744C218.092 182.678 218.33 182.623 218.571 182.579C218.827 182.528 219.069 182.492 219.295 182.47C219.529 182.44 219.734 182.404 219.91 182.36C220.085 182.309 220.224 182.239 220.326 182.152C220.429 182.057 220.48 181.921 220.48 181.746C220.48 181.541 220.44 181.377 220.359 181.252C220.286 181.128 220.187 181.033 220.063 180.967C219.946 180.901 219.811 180.857 219.657 180.835C219.511 180.813 219.365 180.803 219.218 180.803C218.824 180.803 218.495 180.879 218.231 181.033C217.968 181.179 217.825 181.461 217.804 181.877H216.871C216.886 181.526 216.959 181.23 217.091 180.989C217.222 180.748 217.398 180.554 217.617 180.408C217.836 180.254 218.085 180.144 218.363 180.079C218.648 180.013 218.952 179.98 219.273 179.98C219.529 179.98 219.782 179.998 220.03 180.035C220.286 180.071 220.516 180.148 220.721 180.265C220.926 180.375 221.09 180.532 221.215 180.737C221.339 180.941 221.401 181.208 221.401 181.537V184.455C221.401 184.674 221.412 184.835 221.434 184.938C221.463 185.04 221.551 185.091 221.697 185.091C221.778 185.091 221.873 185.073 221.983 185.036V185.76ZM220.469 182.854C220.352 182.941 220.198 183.007 220.008 183.051C219.818 183.088 219.617 183.121 219.405 183.15C219.2 183.172 218.992 183.201 218.78 183.238C218.568 183.267 218.378 183.318 218.209 183.391C218.041 183.464 217.902 183.57 217.793 183.709C217.69 183.841 217.639 184.024 217.639 184.258C217.639 184.411 217.668 184.543 217.727 184.652C217.793 184.755 217.873 184.839 217.968 184.905C218.07 184.971 218.187 185.018 218.319 185.047C218.451 185.077 218.59 185.091 218.736 185.091C219.043 185.091 219.306 185.051 219.526 184.971C219.745 184.883 219.924 184.777 220.063 184.652C220.202 184.521 220.304 184.382 220.37 184.236C220.436 184.082 220.469 183.94 220.469 183.808V182.854ZM226.287 180.934H225.333V180.111H226.287V179.267C226.287 178.806 226.419 178.459 226.682 178.225C226.952 177.984 227.344 177.863 227.855 177.863C227.943 177.863 228.042 177.87 228.152 177.885C228.269 177.9 228.371 177.921 228.459 177.951V178.762C228.378 178.733 228.291 178.715 228.195 178.708C228.1 178.693 228.013 178.686 227.932 178.686C227.706 178.686 227.53 178.729 227.406 178.817C227.281 178.905 227.219 179.073 227.219 179.322V180.111H228.316V180.934H227.219V185.782H226.287V180.934ZM233.086 182.404C233.072 182.185 233.021 181.976 232.933 181.779C232.852 181.581 232.739 181.413 232.593 181.274C232.454 181.128 232.286 181.015 232.088 180.934C231.898 180.846 231.686 180.803 231.452 180.803C231.211 180.803 230.991 180.846 230.794 180.934C230.604 181.015 230.439 181.128 230.3 181.274C230.161 181.42 230.052 181.592 229.971 181.79C229.891 181.98 229.843 182.185 229.829 182.404H233.086ZM233.986 183.983C233.861 184.62 233.587 185.099 233.163 185.42C232.739 185.742 232.205 185.903 231.562 185.903C231.108 185.903 230.713 185.83 230.377 185.684C230.048 185.537 229.77 185.333 229.543 185.069C229.317 184.806 229.145 184.492 229.028 184.126C228.918 183.76 228.856 183.362 228.841 182.93C228.841 182.499 228.907 182.104 229.039 181.746C229.171 181.388 229.353 181.077 229.587 180.813C229.829 180.55 230.11 180.345 230.432 180.199C230.761 180.053 231.119 179.98 231.507 179.98C232.011 179.98 232.428 180.086 232.757 180.298C233.094 180.503 233.361 180.766 233.558 181.088C233.763 181.409 233.902 181.76 233.975 182.141C234.055 182.521 234.088 182.883 234.073 183.227H229.829C229.821 183.475 229.851 183.713 229.916 183.94C229.982 184.159 230.088 184.356 230.234 184.532C230.381 184.7 230.567 184.835 230.794 184.938C231.021 185.04 231.287 185.091 231.595 185.091C231.989 185.091 232.311 185 232.56 184.817C232.816 184.634 232.984 184.356 233.064 183.983H233.986ZM240.656 185.782H239.669L238.517 181.274H238.495L237.354 185.782H236.345L234.524 180.111H235.555L236.839 184.751H236.861L238.001 180.111H239.021L240.206 184.751H240.228L241.5 180.111H242.466L240.656 185.782ZM250.255 181.932C250.182 181.574 250.028 181.296 249.794 181.099C249.56 180.901 249.246 180.803 248.851 180.803C248.514 180.803 248.233 180.865 248.006 180.989C247.779 181.113 247.597 181.278 247.458 181.483C247.326 181.687 247.231 181.925 247.173 182.196C247.114 182.459 247.085 182.733 247.085 183.018C247.085 183.281 247.114 183.537 247.173 183.786C247.238 184.035 247.337 184.258 247.469 184.455C247.6 184.645 247.772 184.799 247.984 184.916C248.196 185.033 248.449 185.091 248.741 185.091C249.202 185.091 249.56 184.971 249.816 184.729C250.079 184.488 250.24 184.148 250.299 183.709H251.253C251.15 184.411 250.887 184.952 250.463 185.333C250.046 185.713 249.476 185.903 248.752 185.903C248.321 185.903 247.937 185.833 247.6 185.694C247.271 185.556 246.993 185.358 246.767 185.102C246.547 184.846 246.379 184.543 246.262 184.192C246.152 183.833 246.098 183.442 246.098 183.018C246.098 182.594 246.152 182.199 246.262 181.834C246.372 181.461 246.536 181.139 246.756 180.868C246.982 180.59 247.264 180.375 247.6 180.221C247.937 180.06 248.328 179.98 248.774 179.98C249.096 179.98 249.396 180.02 249.673 180.101C249.959 180.174 250.207 180.291 250.419 180.452C250.639 180.612 250.818 180.817 250.957 181.066C251.096 181.307 251.183 181.596 251.22 181.932H250.255ZM252.351 177.951H253.283V185.782H252.351V177.951ZM255.715 179.091H254.782V177.951H255.715V179.091ZM254.782 180.111H255.715V185.782H254.782V180.111ZM261.009 181.932C260.936 181.574 260.782 181.296 260.548 181.099C260.314 180.901 260 180.803 259.605 180.803C259.269 180.803 258.987 180.865 258.76 180.989C258.534 181.113 258.351 181.278 258.212 181.483C258.08 181.687 257.985 181.925 257.927 182.196C257.868 182.459 257.839 182.733 257.839 183.018C257.839 183.281 257.868 183.537 257.927 183.786C257.993 184.035 258.091 184.258 258.223 184.455C258.355 184.645 258.526 184.799 258.739 184.916C258.951 185.033 259.203 185.091 259.495 185.091C259.956 185.091 260.314 184.971 260.57 184.729C260.834 184.488 260.994 184.148 261.053 183.709H262.007C261.905 184.411 261.642 184.952 261.217 185.333C260.801 185.713 260.23 185.903 259.506 185.903C259.075 185.903 258.691 185.833 258.355 185.694C258.026 185.556 257.748 185.358 257.521 185.102C257.302 184.846 257.133 184.543 257.016 184.192C256.907 183.833 256.852 183.442 256.852 183.018C256.852 182.594 256.907 182.199 257.016 181.834C257.126 181.461 257.291 181.139 257.51 180.868C257.737 180.59 258.018 180.375 258.355 180.221C258.691 180.06 259.082 179.98 259.528 179.98C259.85 179.98 260.15 180.02 260.428 180.101C260.713 180.174 260.961 180.291 261.174 180.452C261.393 180.612 261.572 180.817 261.711 181.066C261.85 181.307 261.938 181.596 261.974 181.932H261.009ZM263.105 177.951H264.038V182.59L266.626 180.111H267.877L265.628 182.174L268.041 185.782H266.856L264.915 182.821L264.038 183.632V185.782H263.105V177.951ZM269.308 183.994C269.316 184.199 269.363 184.375 269.451 184.521C269.539 184.66 269.652 184.773 269.791 184.861C269.937 184.941 270.098 185 270.274 185.036C270.457 185.073 270.643 185.091 270.833 185.091C270.979 185.091 271.133 185.08 271.294 185.058C271.455 185.036 271.601 184.996 271.733 184.938C271.871 184.879 271.985 184.795 272.073 184.685C272.16 184.568 272.204 184.422 272.204 184.247C272.204 184.005 272.113 183.823 271.93 183.698C271.747 183.574 271.517 183.475 271.239 183.402C270.968 183.322 270.672 183.252 270.351 183.194C270.029 183.128 269.729 183.04 269.451 182.93C269.181 182.813 268.954 182.653 268.771 182.448C268.588 182.243 268.497 181.958 268.497 181.592C268.497 181.307 268.559 181.062 268.683 180.857C268.815 180.653 268.979 180.488 269.177 180.364C269.382 180.232 269.608 180.137 269.857 180.079C270.113 180.013 270.365 179.98 270.614 179.98C270.935 179.98 271.232 180.009 271.502 180.068C271.773 180.119 272.01 180.214 272.215 180.353C272.427 180.484 272.595 180.667 272.72 180.901C272.844 181.128 272.917 181.413 272.939 181.757H272.007C271.992 181.574 271.945 181.424 271.864 181.307C271.784 181.183 271.681 181.084 271.557 181.011C271.433 180.938 271.294 180.887 271.14 180.857C270.994 180.821 270.844 180.803 270.691 180.803C270.552 180.803 270.409 180.813 270.263 180.835C270.124 180.857 269.996 180.898 269.879 180.956C269.762 181.007 269.667 181.08 269.594 181.175C269.521 181.263 269.484 181.38 269.484 181.526C269.484 181.687 269.539 181.823 269.649 181.932C269.766 182.035 269.912 182.122 270.087 182.196C270.263 182.261 270.46 182.32 270.68 182.371C270.899 182.415 271.118 182.462 271.338 182.514C271.572 182.565 271.798 182.627 272.018 182.7C272.244 182.773 272.442 182.872 272.61 182.996C272.786 183.113 272.924 183.263 273.027 183.446C273.137 183.629 273.191 183.855 273.191 184.126C273.191 184.47 273.118 184.755 272.972 184.982C272.833 185.208 272.647 185.391 272.413 185.53C272.186 185.669 271.926 185.764 271.634 185.815C271.349 185.874 271.063 185.903 270.778 185.903C270.464 185.903 270.164 185.87 269.879 185.804C269.594 185.738 269.341 185.632 269.122 185.486C268.903 185.333 268.727 185.135 268.596 184.894C268.464 184.645 268.391 184.345 268.376 183.994H269.308Z" fill="#3A3A56"/>
        </g>
    </g>
    <defs>
        <filter id="filter0_d_3147_5281" x="56.0633" y="77.9428" width="63.1859" height="63.1864" filterUnits="userSpaceOnUse" color-interpolation-filters="sRGB">
            <feFlood flood-opacity="0" result="BackgroundImageFix"/>
            <feColorMatrix in="SourceAlpha" type="matrix" values="0 0 0 0 0 0 0 0 0 0 0 0 0 0 0 0 0 0 127 0" result="hardAlpha"/>
            <feOffset dy="2.15293"/>
            <feGaussianBlur stdDeviation="2.15293"/>
            <feComposite in2="hardAlpha" operator="out"/>
            <feColorMatrix type="matrix" values="0 0 0 0 0 0 0 0 0 0 0 0 0 0 0 0 0 0 0.05 0"/>
            <feBlend mode="normal" in2="BackgroundImageFix" result="effect1_dropShadow_3147_5281"/>
            <feBlend mode="normal" in="SourceGraphic" in2="effect1_dropShadow_3147_5281" result="shape"/>
        </filter>
        <filter id="filter1_d_3147_5281" x="164.286" y="74.3231" width="70.4242" height="70.4245" filterUnits="userSpaceOnUse" color-interpolation-filters="sRGB">
            <feFlood flood-opacity="0" result="BackgroundImageFix"/>
            <feColorMatrix in="SourceAlpha" type="matrix" values="0 0 0 0 0 0 0 0 0 0 0 0 0 0 0 0 0 0 127 0" result="hardAlpha"/>
            <feOffset dy="2.15293"/>
            <feGaussianBlur stdDeviation="2.15293"/>
            <feComposite in2="hardAlpha" operator="out"/>
            <feColorMatrix type="matrix" values="0 0 0 0 0 0 0 0 0 0 0 0 0 0 0 0 0 0 0.05 0"/>
            <feBlend mode="normal" in2="BackgroundImageFix" result="effect1_dropShadow_3147_5281"/>
            <feBlend mode="normal" in="SourceGraphic" in2="effect1_dropShadow_3147_5281" result="shape"/>
        </filter>
        <filter id="filter2_d_3147_5281" x="279.749" y="77.9418" width="63.1879" height="63.1876" filterUnits="userSpaceOnUse" color-interpolation-filters="sRGB">
            <feFlood flood-opacity="0" result="BackgroundImageFix"/>
            <feColorMatrix in="SourceAlpha" type="matrix" values="0 0 0 0 0 0 0 0 0 0 0 0 0 0 0 0 0 0 127 0" result="hardAlpha"/>
            <feOffset dy="2.15293"/>
            <feGaussianBlur stdDeviation="2.15293"/>
            <feComposite in2="hardAlpha" operator="out"/>
            <feColorMatrix type="matrix" values="0 0 0 0 0 0 0 0 0 0 0 0 0 0 0 0 0 0 0.05 0"/>
            <feBlend mode="normal" in2="BackgroundImageFix" result="effect1_dropShadow_3147_5281"/>
            <feBlend mode="normal" in="SourceGraphic" in2="effect1_dropShadow_3147_5281" result="shape"/>
        </filter>
        <filter id="filter3_d_3147_5281" x="113.578" y="169.857" width="171.84" height="26.5072" filterUnits="userSpaceOnUse" color-interpolation-filters="sRGB">
            <feFlood flood-opacity="0" result="BackgroundImageFix"/>
            <feColorMatrix in="SourceAlpha" type="matrix" values="0 0 0 0 0 0 0 0 0 0 0 0 0 0 0 0 0 0 127 0" result="hardAlpha"/>
            <feOffset dy="1.82809"/>
            <feGaussianBlur stdDeviation="1.82809"/>
            <feComposite in2="hardAlpha" operator="out"/>
            <feColorMatrix type="matrix" values="0 0 0 0 0 0 0 0 0 0 0 0 0 0 0 0 0 0 0.05 0"/>
            <feBlend mode="normal" in2="BackgroundImageFix" result="effect1_dropShadow_3147_5281"/>
            <feBlend mode="normal" in="SourceGraphic" in2="effect1_dropShadow_3147_5281" result="shape"/>
        </filter>
        <clipPath id="clip0_3147_5281">
            <rect width="400" height="216" fill="white"/>
        </clipPath>
    </defs>
</svg>
