<?xml version="1.0" encoding="utf-8"?>
<!-- Generator: Adobe Illustrator 23.0.6, SVG Export Plug-In . SVG Version: 6.00 Build 0)  -->
<svg version="1.1" id="Capa_1" xmlns="http://www.w3.org/2000/svg" xmlns:xlink="http://www.w3.org/1999/xlink" x="0px" y="0px"
	 viewBox="0 0 44.79 44.79" style="enable-background:new 0 0 44.79 44.79;" xml:space="preserve">
<style type="text/css">
	.st0{fill:#FFFFFF;}
</style>
<g>
	<g>
		<path class="st0" d="M25.06,39.17c-0.34,0.47-0.83,0.82-1.39,0.97l-2.79,0.76C20.66,40.97,20.44,41,20.21,41
			c-0.51,0-1.01-0.16-1.43-0.45c-0.61-0.43-1-1.1-1.06-1.83l-0.25-2.88c-0.06-0.59,0.1-1.18,0.44-1.66l0.1-0.15H8.06
			c-0.8,0-1.45-0.66-1.45-1.46c0-0.8,0.65-1.47,1.45-1.47h12.05l2.69-3.84H8.06c-0.8,0-1.45-0.66-1.45-1.47s0.65-1.47,1.45-1.47
			l16.81-0.04l6.3-9.04V8.55c0-1.1-0.85-1.99-1.95-1.99H24.4v3.82c0,1.8-1.47,3.23-3.27,3.23h-9.71c-1.8,0-3.23-1.43-3.23-3.23V6.56
			H3.32c-1.1,0-1.99,0.89-1.99,1.99V42.7c0,1.1,0.89,2.04,1.99,2.04h25.91c1.1,0,1.95-0.94,1.95-2.04V30.49L25.06,39.17z
			 M8.06,17.55h16.42c0.8,0,1.45,0.66,1.45,1.46c0,0.8-0.65,1.47-1.45,1.47H8.06c-0.8,0-1.45-0.66-1.45-1.47
			C6.61,18.21,7.26,17.55,8.06,17.55z"/>
		<path class="st0" d="M11.45,11.69h9.7c0.73,0,1.33-0.6,1.33-1.33V4.78c0-0.74-0.6-1.33-1.33-1.33h-1.46
			c-0.01-1.88-1.53-3.4-3.41-3.4c-1.88,0-3.4,1.52-3.41,3.39h-1.41c-0.74,0-1.33,0.6-1.33,1.33v5.58
			C10.12,11.09,10.71,11.69,11.45,11.69z M16.27,1.94c0.83,0,1.51,0.67,1.52,1.5h-3.05C14.76,2.61,15.44,1.94,16.27,1.94z"/>
		<path class="st0" d="M43.44,9.03c-0.04-0.25-0.19-0.47-0.39-0.61l-2.43-1.69c-0.16-0.11-0.35-0.17-0.54-0.17
			c-0.3,0-0.59,0.14-0.77,0.4l-17.2,24.66l3.97,2.77l17.2-24.66C43.43,9.53,43.49,9.27,43.44,9.03z"/>
		<path class="st0" d="M19.4,35.65l0.25,2.9c0.01,0.17,0.1,0.32,0.24,0.41c0.1,0.07,0.21,0.1,0.32,0.1c0.05,0,0.1-0.01,0.15-0.02
			l2.81-0.77c0.13-0.03,0.24-0.11,0.31-0.22l1.05-1.51l-3.98-2.77l-1.05,1.51C19.43,35.39,19.39,35.52,19.4,35.65z"/>
	</g>
</g>
</svg>
